<?xml version="1.0" encoding="UTF-8" standalone="no"?>
<svg
   xmlns:dc="http://purl.org/dc/elements/1.1/"
   xmlns:cc="http://creativecommons.org/ns#"
   xmlns:rdf="http://www.w3.org/1999/02/22-rdf-syntax-ns#"
   xmlns:svg="http://www.w3.org/2000/svg"
   xmlns="http://www.w3.org/2000/svg"
   xmlns:sodipodi="http://sodipodi.sourceforge.net/DTD/sodipodi-0.dtd"
   xmlns:inkscape="http://www.inkscape.org/namespaces/inkscape"
   sodipodi:docname="vertical_gene_transfer.svg"
   inkscape:version="1.0rc1 (09960d6, 2020-04-09)"
   inkscape:export-ydpi="96"
   inkscape:export-xdpi="96"
   inkscape:export-filename="/Users/macos/Desktop/vertical_gene_transfer.png"
   id="svg1101"
   version="1.1"
   viewBox="0 0 210 297"
   height="297mm"
   width="210mm">
  <defs
     id="defs1095">
    <marker
       inkscape:isstock="true"
       style="overflow:visible"
       id="marker3469-9"
       refX="0"
       refY="0"
       orient="auto"
       inkscape:stockid="Arrow1Mend"
       inkscape:collect="always">
      <path
         inkscape:connector-curvature="0"
         transform="matrix(-0.4,0,0,-0.4,-4,0)"
         style="fill:#000000;fill-opacity:1;fill-rule:evenodd;stroke:#000000;stroke-width:1pt;stroke-opacity:1"
         d="M 0,0 5,-5 -12.5,0 5,5 Z"
         id="path3467-8" />
    </marker>
    <marker
       inkscape:isstock="true"
       style="overflow:visible"
       id="marker3630-1"
       refX="0"
       refY="0"
       orient="auto"
       inkscape:stockid="Arrow1Mend"
       inkscape:collect="always">
      <path
         inkscape:connector-curvature="0"
         transform="matrix(-0.4,0,0,-0.4,-4,0)"
         style="fill:#000000;fill-opacity:1;fill-rule:evenodd;stroke:#000000;stroke-width:1pt;stroke-opacity:1"
         d="M 0,0 5,-5 -12.5,0 5,5 Z"
         id="path3628-1" />
    </marker>
  </defs>
  <sodipodi:namedview
     inkscape:window-maximized="0"
     inkscape:window-y="23"
     inkscape:window-x="0"
     inkscape:window-height="855"
     inkscape:window-width="1252"
     showgrid="false"
     inkscape:document-rotation="0"
     inkscape:current-layer="layer1"
     inkscape:document-units="mm"
     inkscape:cy="560"
     inkscape:cx="400"
     inkscape:zoom="0.35"
     inkscape:pageshadow="2"
     inkscape:pageopacity="0.0"
     borderopacity="1.0"
     bordercolor="#666666"
     pagecolor="#ffffff"
     id="base" />
  <metadata
     id="metadata1098">
    <rdf:RDF>
      <cc:Work
         rdf:about="">
        <dc:format>image/svg+xml</dc:format>
        <dc:type
           rdf:resource="http://purl.org/dc/dcmitype/StillImage" />
        <dc:title></dc:title>
      </cc:Work>
    </rdf:RDF>
  </metadata>
  <g
     id="layer1"
     inkscape:groupmode="layer"
     inkscape:label="Layer 1">
    <ellipse
       inkscape:export-ydpi="96"
       inkscape:export-xdpi="96"
       style="fill:#fff6f7;fill-opacity:0.00806454;fill-rule:evenodd;stroke:#000000;stroke-width:0.499999;stroke-miterlimit:4;stroke-dasharray:none;stroke-opacity:1;paint-order:stroke fill markers"
       id="path24-6"
       cx="110.17811"
       cy="78.747993"
       rx="24.341928"
       ry="16.434679" />
    <path
       inkscape:export-ydpi="96"
       inkscape:export-xdpi="96"
       style="fill:none;stroke:#000000;stroke-width:0.264583px;stroke-linecap:butt;stroke-linejoin:miter;stroke-opacity:1;marker-end:url(#marker3469-9)"
       d="m 124.28712,94.562507 14.88424,14.264063"
       id="path3465-1"
       inkscape:connector-curvature="0" />
    <path
       inkscape:export-ydpi="96"
       inkscape:export-xdpi="96"
       inkscape:connector-curvature="0"
       id="path3465-6-1"
       d="M 97.344204,94.939258 82.663688,109.41289"
       style="fill:none;stroke:#000000;stroke-width:0.264583px;stroke-linecap:butt;stroke-linejoin:miter;stroke-opacity:1;marker-end:url(#marker3630-1)" />
    <path
       inkscape:export-ydpi="96"
       inkscape:export-xdpi="96"
       style="fill:none;stroke:#000000;stroke-width:0.499999;stroke-linecap:butt;stroke-linejoin:miter;stroke-miterlimit:4;stroke-dasharray:none;stroke-opacity:1"
       d="m 94.208566,78.437916 c 2.687431,0.31009 6.587954,3.19847 8.062294,0.93026 1.48826,-2.28963 -2.611269,-4.79937 -4.031147,-7.13203 -0.05374,-0.0883 -0.412652,-0.0128 -0.310089,0 0.928761,0.1161 1.894279,0.0411 2.790796,0.31009 0.22138,0.0664 0.2311,0.40297 0.31009,0.62018 0.74849,2.05835 2.31163,4.01609 2.17062,6.20176 -0.20627,3.197191 -3.09253,3.273301 -4.961417,4.341239 -0.301361,0.172201 1.117092,0.894501 0.310089,1.240351 -0.765958,0.328271 -1.820183,0.198011 -2.480707,-0.310089 -0.843497,-0.648841 -1.074523,-1.83896 -1.550443,-2.790791 -0.06537,-0.13075 0.206727,0.413451 0.310089,0.310089 0.103363,-0.103359 -0.370575,-0.443159 -0.310089,-0.310089 0.573845,1.262459 1.274091,2.464401 1.860532,3.72106 0.138223,0.296191 0.635606,0.959861 0.310089,0.930259 -1.302078,-0.118369 -2.711802,-0.409199 -3.72106,-1.240348 -1.109152,-0.913421 -2.617142,-7.454531 -2.170618,-8.682471 0.20597,-0.56642 0.968975,-0.77168 1.55044,-0.93027 0.698044,-0.19037 1.658998,-0.51162 2.170617,0 0.880105,0.88011 1.766946,1.77114 2.480707,2.7908 1.128488,1.61212 3.789981,8.280499 6.511851,4.651321 2.35919,-3.145571 -3.760801,-11.123431 -7.752204,-7.132031 -0.944608,0.94461 -1.212369,1.12842 -1.55044,2.48071 z"
       id="path3748-8"
       inkscape:connector-curvature="0" />
    <ellipse
       inkscape:export-ydpi="96"
       inkscape:export-xdpi="96"
       style="fill:#fff6f7;fill-opacity:0.00806454;stroke:#000000;stroke-width:0.499999;stroke-miterlimit:4;stroke-dasharray:none;stroke-opacity:1;paint-order:stroke fill markers"
       id="path3750-1"
       cx="113.74412"
       cy="76.42234"
       rx="4.0311475"
       ry="3.2559268" />
    <ellipse
       inkscape:export-ydpi="96"
       inkscape:export-xdpi="96"
       style="fill:#fff6f7;fill-opacity:0.00806454;stroke:#000000;stroke-width:0.499999;stroke-miterlimit:4;stroke-dasharray:none;stroke-opacity:1;paint-order:stroke fill markers"
       id="path3752-1"
       cx="120.41102"
       cy="84.949776"
       rx="2.0155737"
       ry="1.8605297" />
    <ellipse
       inkscape:export-ydpi="96"
       inkscape:export-xdpi="96"
       ry="16.434679"
       rx="24.341928"
       cy="126.8117"
       cx="138.55118"
       id="path24-8-5"
       style="fill:#fff6f7;fill-opacity:0.00806454;fill-rule:evenodd;stroke:#000000;stroke-width:0.499999;stroke-miterlimit:4;stroke-dasharray:none;stroke-opacity:1;paint-order:stroke fill markers" />
    <path
       inkscape:export-ydpi="96"
       inkscape:export-xdpi="96"
       inkscape:connector-curvature="0"
       id="path3748-7-0"
       d="m 122.58164,126.50161 c 2.68743,0.31009 6.58796,3.19848 8.0623,0.93027 1.48826,-2.28964 -2.61128,-4.79938 -4.03115,-7.13203 -0.0537,-0.0883 -0.41266,-0.0128 -0.31009,0 0.92876,0.11609 1.89428,0.0411 2.79079,0.31009 0.22138,0.0664 0.23111,0.40296 0.31009,0.62017 0.74849,2.05835 2.31163,4.01609 2.17062,6.20177 -0.20627,3.19718 -3.09252,3.2733 -4.96141,4.34124 -0.30136,0.1722 1.11709,0.89449 0.31009,1.24035 -0.76596,0.32826 -1.82019,0.198 -2.48071,-0.31009 -0.8435,-0.64885 -1.07452,-1.83896 -1.55044,-2.79079 -0.0654,-0.13075 0.20672,0.41344 0.31009,0.31008 0.10336,-0.10336 -0.37058,-0.44316 -0.31009,-0.31008 0.57384,1.26245 1.27409,2.4644 1.86053,3.72105 0.13822,0.2962 0.6356,0.95986 0.31009,0.93027 -1.30208,-0.11837 -2.71181,-0.4092 -3.72106,-1.24036 -1.10916,-0.91341 -2.61715,-7.45453 -2.17062,-8.68247 0.20597,-0.56641 0.96897,-0.77168 1.55044,-0.93026 0.69804,-0.19038 1.659,-0.51162 2.17062,0 0.8801,0.8801 1.76694,1.77113 2.4807,2.79079 1.12849,1.61213 3.78998,8.2805 6.51186,4.65133 2.35918,-3.14558 -3.76081,-11.12344 -7.75221,-7.13203 -0.94461,0.9446 -1.21237,1.12841 -1.55044,2.4807 z"
       style="fill:none;stroke:#000000;stroke-width:0.499999;stroke-linecap:butt;stroke-linejoin:miter;stroke-miterlimit:4;stroke-dasharray:none;stroke-opacity:1" />
    <ellipse
       inkscape:export-ydpi="96"
       inkscape:export-xdpi="96"
       ry="3.2559268"
       rx="4.0311475"
       cy="124.48604"
       cx="142.1172"
       id="path3750-8-0"
       style="fill:#fff6f7;fill-opacity:0.00806454;stroke:#000000;stroke-width:0.499999;stroke-miterlimit:4;stroke-dasharray:none;stroke-opacity:1;paint-order:stroke fill markers" />
    <ellipse
       inkscape:export-ydpi="96"
       inkscape:export-xdpi="96"
       ry="1.8605297"
       rx="2.0155737"
       cy="133.01346"
       cx="148.78409"
       id="path3752-7-8"
       style="fill:#fff6f7;fill-opacity:0.00806454;stroke:#000000;stroke-width:0.499999;stroke-miterlimit:4;stroke-dasharray:none;stroke-opacity:1;paint-order:stroke fill markers" />
    <path
       inkscape:export-ydpi="96"
       inkscape:export-xdpi="96"
       inkscape:connector-curvature="0"
       id="path3748-4-3"
       d="m 71.106988,126.50161 c 2.68743,0.31009 6.587959,3.19847 8.062295,0.93027 1.488261,-2.28964 -2.611271,-4.79938 -4.031149,-7.13203 -0.05374,-0.0883 -0.412652,-0.0128 -0.310089,0 0.928762,0.11609 1.894279,0.0411 2.790797,0.31009 0.221378,0.0664 0.231102,0.40296 0.310089,0.62017 0.748489,2.05835 2.311627,4.01609 2.170617,6.20177 -0.206271,3.19718 -3.092524,3.27329 -4.961414,4.34123 -0.30136,0.17221 1.117092,0.8945 0.310089,1.24035 -0.765958,0.32827 -1.820182,0.19801 -2.480707,-0.31008 -0.843496,-0.64885 -1.074522,-1.83896 -1.550441,-2.7908 -0.06537,-0.13074 0.206727,0.41345 0.310089,0.31009 0.103362,-0.10336 -0.370576,-0.44316 -0.310089,-0.31009 0.573844,1.26246 1.274089,2.46441 1.86053,3.72106 0.138224,0.2962 0.635606,0.95986 0.310089,0.93026 -1.302078,-0.11836 -2.711801,-0.40919 -3.72106,-1.24035 -1.109151,-0.91342 -2.617141,-7.45453 -2.170617,-8.68247 0.20597,-0.56641 0.968976,-0.77168 1.550439,-0.93026 0.698046,-0.19038 1.658999,-0.51162 2.170619,0 0.880103,0.8801 1.766944,1.77113 2.480706,2.79079 1.128487,1.61213 3.789977,8.2805 6.511853,4.65132 2.359182,-3.14557 -3.760803,-11.12343 -7.752207,-7.13202 -0.944606,0.9446 -1.212366,1.12841 -1.550439,2.4807 z"
       style="fill:none;stroke:#000000;stroke-width:0.499999;stroke-linecap:butt;stroke-linejoin:miter;stroke-miterlimit:4;stroke-dasharray:none;stroke-opacity:1" />
    <ellipse
       inkscape:export-ydpi="96"
       inkscape:export-xdpi="96"
       ry="3.2559268"
       rx="4.0311475"
       cy="124.48604"
       cx="90.64254"
       id="path3750-4-7"
       style="fill:#fff6f7;fill-opacity:0.00806454;stroke:#000000;stroke-width:0.499999;stroke-miterlimit:4;stroke-dasharray:none;stroke-opacity:1;paint-order:stroke fill markers" />
    <ellipse
       inkscape:export-ydpi="96"
       inkscape:export-xdpi="96"
       ry="1.8605297"
       rx="2.0155737"
       cy="133.01346"
       cx="97.309441"
       id="path3752-9-0"
       style="fill:#fff6f7;fill-opacity:0.00806454;stroke:#000000;stroke-width:0.499999;stroke-miterlimit:4;stroke-dasharray:none;stroke-opacity:1;paint-order:stroke fill markers" />
    <text
       inkscape:export-ydpi="96"
       inkscape:export-xdpi="96"
       id="text3876-0-1"
       y="59.205585"
       x="108.67178"
       style="font-style:normal;font-weight:normal;font-size:4.9389px;line-height:1.25;font-family:sans-serif;fill:#000000;fill-opacity:1;stroke:none;stroke-width:0.264583"
       xml:space="preserve"><tspan
         id="tspan3878-6-4"
         style="font-style:normal;font-variant:normal;font-weight:bold;font-stretch:normal;font-family:Arial;-inkscape-font-specification:Arial;text-align:center;text-anchor:middle;stroke-width:0.264583"
         y="59.205585"
         x="108.67178"
         sodipodi:role="line">Vertical Gene Transfer</tspan></text>
    <ellipse
       inkscape:export-ydpi="96"
       inkscape:export-xdpi="96"
       ry="16.434679"
       rx="24.341928"
       cy="127.27682"
       cx="86.722626"
       id="path24-6-5"
       style="fill:#fff6f7;fill-opacity:0.00806454;fill-rule:evenodd;stroke:#000000;stroke-width:0.499999;stroke-miterlimit:4;stroke-dasharray:none;stroke-opacity:1;paint-order:stroke fill markers" />
  </g>
</svg>
